<svg xmlns="http://www.w3.org/2000/svg" version="1.1" width="600" height="600" viewBox="0 0 600 600">
  <circle fill="#9ca6a7" cx="300" cy="300" r="230"/>
  <circle fill="#fff" cx="300" cy="300" r="198.5"/>
  <path fill="none" stroke="#fff" stroke-width="3" d="M79.15 318.7l441.4-38.6m-201.4 240l-38.6-441.4m-123.1 390.4l284.8-339.4m27.32 312.1L130.13 157M81.66 337.88L518 260.94M338.3 517.57L261.4 81.23m-88.63 399.65L426.9 117.93m54.43 308.53L118.37 172.34m-32.52 184.4l428-114.68M357.18 513.4l-114.7-428m-53.42 405.86l221.54-383.72m81.08 302.63L107.98 188.63M91.66 375.2l416.36-151.56m-132.4 283.93L224.08 91.23M206.2 500.2L393.5 98.6m107.15 294.4L99.06 205.78m0 187.26l401.57-187.25m-107.17 294.4L206.2 98.62m17.88 408.96L375.62 91.23m132.4 283.94L91.66 223.64M108 410.17l383.7-221.54m-81.08 302.63L189.08 107.54M242.5 513.4l114.68-428m156.65 271.34L85.85 242.06m32.52 184.4l362.95-254.12m-54.4 308.54L172.78 117.92m88.6 399.65L338.3 81.23m179.73 256.65L81.66 260.94m48.47 180.86L469.53 157m-27.28 312.1l-284.8-339.4m123.1 390.4l38.6-441.4m201.4 240l-441.4-38.6"/>
  <path fill="#fff" d="M526 299.35l-112.5-47.08 46.27-112.88-112.85 46.26-47.03-112.4-47.07 112.5-112.9-46.28 46.27 112.85L73.68 299.4l112.52 47.07-46.26 112.85 112.83-46.28 47.08 112.52 47.08-112.52 112.84 46.27-46.28-112.88"/>
</svg>