<svg xmlns="http://www.w3.org/2000/svg" id="house3d" version="1.1" width="350" height="404" preserveAspectRatio="xMinYMin slice" viewBox="0 0 350 404">
            <defs>
              <linearGradient id="gradient1" gradientUnits="userSpaceOnUse" x1="7.123" x2="87.6948">
                <stop offset="0.8358" stop-color="#F0D48E"/>
                <stop offset="1" stop-color="#D7C087"/>
              </linearGradient>
            </defs>
            <path fill="#FFF" d="M9.18 289.71l24.67-15.67-20.05-53.83 33.88-20.67h222.17l65.42 51.67v52.25L164.1 400.21 9.18 289.71z"/>
            <path fill="#747474" d="M281.36 219.46v19.95l-117.39 67.77-39.79-22.97V264h-9.47l.05 72.21 175.92-65.85v-50.9h-9.32zm-79.91 113.08v19.95l-37.48 21.64-25.9-14.96v-20.21h-9.47l.05 26.8 35.33 20.87 46.79-25.17v-28.92h-9.32zM33.69 204.1h13.38l-26.51 15.3 24.96 14.4v15.33L7.18 219.4l26.51-15.3zm-.04 66.93h13.38l-26.51 15.3 24.96 14.4v15.33L7.14 286.33l26.51-15.3zm308.31-19.84l-47.28 38.35 7.39-23.05 26.51-15.3-24.95-14.4 6.65-3.88 31.68 18.28z"/>
            <path opacity="0.5" fill="#A9D5F7" d="M42.87 236.15l-29.04-16.77v-19.16h42.95l-13.91 35.93zm-.03 66.92L13.8 286.3v-19.16h42.95l-13.91 35.93zm121.13 74.92l-29.25-16.89v-19.16l70.07-8.98v21.46l-40.82 23.57zm-.01-66.94l-43.13-24.91v-19.16l163.88-47.1v21.46l-120.75 69.71zm125.72-64.42l45.59-14.6v19.16l-33.2 19.17-12.39-23.73z"/>
            <path fill="url(#gradient1)" d="M42.87 306.96l.01-21.96-35.74-20.64.03-44.96 35.71 20.61-.02-21.97L7.18 197.4v-23.73l80.57 27.61v150.01l-7.14-4.13-1.64-45.17-22-9.2-2 39.04-47.83-27.87v-17.63l35.73 20.63z"/>
            <path fill="#747474" d="M85.35 353.64l-78.2-45.16v-4.97l78.2 45.15v4.98z"/>
            <path fill="#646464" d="M67.71 337.54H56.53v-45.71l11.17 3.38.01 42.33z"/>
            <path opacity="0.2" d="M80.6 301.55l1.83 1.05v49.33l-1.82-1.05-1.82-47.79-22.01-13.19v-1.61l1.03.11 22.79 13.15z"/>
            <path fill="#7D7D7D" d="M57.41 289.92v47.62h-2.48v-48.22l2.48.6z"/>
            <path fill="#B4B4B4" d="M49.97 340.31l19.66 9.12-1.93 6.08-17.74-10.24v-4.96z"/>
            <path fill="#646464" d="M77.19 350.03l-9.49 5.48v-5.8l9.49-5.48v5.8z"/>
            <path fill="#8C8C8C" d="M67.7 330.07l10.4 6.01-.35 8.66-10.06 5.81-17.72-10.24 17.73-10.24z"/>
            <path opacity="0.5" fill="#A9D5F7" d="M77.62 341.79l-15.12-8.73V295.1l15.34 8.86-.22 37.83z"/>
            <path fill="#7D7D7D" d="M54.94 289.32l25.67 12.74-1.81 49.88-2.48-1.43v-45.98l-18.89-10.91-2.49-4.3z"/>
            <path fill="#747474" d="M80.6 350.89l-1.81 1.04v-49.88h1.81v48.84z"/>
            <path fill="#B4B4B4" d="M297.24 337.21l-30.72 17.71-2.48-6.37 33.2-16.3v4.96zm-40.27 18.27l-33.2 16.3 2.48 6.37 30.72-17.71v-4.96zM80.6 302.05l-1.82 1.05-23.82-13.75 1.82-1.05 23.82 13.75z"/>
            <path fill="#F8DC94" d="M166.43 290.46l-2.45 2.49-46.53-26.89v21.98l46.53 26.86h2.46v42.81l-2.46 2.18-32.6-18.81v21.96l32.6 18.82h2.46v20.01l-83-48.86.01-149.25 82.99 49.69v37.01z"/>
            <path fill="#747474" d="M281.83 289.75h8.16v40.66h-8.16v-40.66zm-40.27 63.88h8.16v-40.66h-8.16v40.66zm100.41-59.19v6.81L163.98 404.01l-80.55-46.5v-4.98l80.55 46.5v.02l177.99-104.61z"/>
            <path fill="#646464" d="M266.52 348.78v6.14l-8.74-5.05v-6.14l8.74 5.05zm-49.01 18.18v6.14l8.74 5.05V372l-8.74-5.04z"/>
            <path fill="#8C8C8C" d="M241.6 346.59l-30.71 17.74 15.37 8.88 30.71-17.74-15.37-8.88zm40.27-23.22l-30.71 17.74 15.37 8.88 30.71-17.74-15.37-8.88z"/>
            <path opacity="0.5" fill="#A9D5F7" d="M285.17 325.29l-30.71 17.73v-52.04h30.71v34.31zm-40.26 23.22l-30.71 17.73V314.2h30.71v34.31z"/>
            <path fill="#D7C087" d="M302.07 252.26v21.96l39.89-23.03v45.09l-53.5 30.88v-36.89l-30.72 17.71v36.92l-9.54 5.52V313.5l-30.68 17.74v36.9l-53.54 30.91v-17.19l44.16-25.5V334.4l-44.16 25.49v-44.98l124.11-71.66v-21.98l-124.11 71.68v-40.91L341.96 149.3v79.88l-39.89 23.08z"/>
          </svg>