<svg id="eWpCy6zEXAS1" xmlns="http://www.w3.org/2000/svg" xmlns:xlink="http://www.w3.org/1999/xlink" viewBox="0 0 300 35" shape-rendering="geometricPrecision" text-rendering="geometricPrecision"><g transform="translate(.000011-46.690069)"><rect width="300" height="17.221" rx="0" ry="0" transform="matrix(1 0 0 0.127014-.000011 56.609437)" fill="#818181" stroke-width="0"/><rect width="300" height="17.221" rx="0" ry="0" transform="matrix(1 0 0 0.127014-.000011 69.530854)" fill="#818181" stroke-width="0"/><g transform="matrix(0 1-1 0 176.102638 44.004436)"><g transform="translate(0 0.000001)"><rect width="25.325" height="49.637" rx="0" ry="0" transform="matrix(.992329 0 0 0.801381 7.62061 128.459)" fill="#4398d1" stroke="#3e8cc7"/></g><rect width="1.27219" height="38.8812" rx="0" ry="0" transform="matrix(1.625 0 0 1.02307 14.7928 128.459)" fill="#3e8cc7" stroke-width="0"/><rect width="1.27219" height="38.8812" rx="0" ry="0" transform="matrix(1.625 0 0 1.02153 23.4596 128.459)" fill="#3e8cc7" stroke-width="0"/><rect width="1.27219" height="38.8812" rx="0" ry="0" transform="matrix(0 1.625-.646347 0 32.7513 137.266)" fill="#3e8cc7" stroke-width="0"/><rect width="1.27219" height="38.8812" rx="0" ry="0" transform="matrix(0 1.625-.646347 0 32.7514 147.314)" fill="#3e8cc7" stroke-width="0"/><rect width="1.27219" height="38.8812" rx="0" ry="0" transform="matrix(0 1.625-.646347 0 32.7514 157.571)" fill="#3e8cc7" stroke-width="0"/></g><g transform="matrix(0 1-1 0 322.712381 44.004241)"><g transform="translate(0 0.000001)"><rect width="25.325" height="49.637" rx="0" ry="0" transform="matrix(.992329 0 0 0.801381 7.62061 128.459)" fill="#4398d1" stroke="#3e8cc7"/></g><rect width="1.27219" height="38.8812" rx="0" ry="0" transform="matrix(1.625 0 0 1.02307 14.7928 128.459)" fill="#3e8cc7" stroke-width="0"/><rect width="1.27219" height="38.8812" rx="0" ry="0" transform="matrix(1.625 0 0 1.02153 23.4596 128.459)" fill="#3e8cc7" stroke-width="0"/><rect width="1.27219" height="38.8812" rx="0" ry="0" transform="matrix(0 1.625-.646347 0 32.7513 137.266)" fill="#3e8cc7" stroke-width="0"/><rect width="1.27219" height="38.8812" rx="0" ry="0" transform="matrix(0 1.625-.646347 0 32.7514 147.314)" fill="#3e8cc7" stroke-width="0"/><rect width="1.27219" height="38.8812" rx="0" ry="0" transform="matrix(0 1.625-.646347 0 32.7514 157.571)" fill="#3e8cc7" stroke-width="0"/></g><g transform="matrix(0 1-1 0 224.910476 44.004043)"><g transform="translate(0 0.000001)"><rect width="25.325" height="49.637" rx="0" ry="0" transform="matrix(.992329 0 0 0.801381 7.62061 128.459)" fill="#4398d1" stroke="#3e8cc7"/></g><rect width="1.27219" height="38.8812" rx="0" ry="0" transform="matrix(1.625 0 0 1.02307 14.7928 128.459)" fill="#3e8cc7" stroke-width="0"/><rect width="1.27219" height="38.8812" rx="0" ry="0" transform="matrix(1.625 0 0 1.02153 23.4596 128.459)" fill="#3e8cc7" stroke-width="0"/><rect width="1.27219" height="38.8812" rx="0" ry="0" transform="matrix(0 1.625-.646347 0 32.7513 137.266)" fill="#3e8cc7" stroke-width="0"/><rect width="1.27219" height="38.8812" rx="0" ry="0" transform="matrix(0 1.625-.646347 0 32.7514 147.314)" fill="#3e8cc7" stroke-width="0"/><rect width="1.27219" height="38.8812" rx="0" ry="0" transform="matrix(0 1.625-.646347 0 32.7514 157.571)" fill="#3e8cc7" stroke-width="0"/></g><g transform="matrix(0 1-1 0 371.573821 44.003747)"><g transform="translate(0 0.000001)"><rect width="25.325" height="49.637" rx="0" ry="0" transform="matrix(.992329 0 0 0.801381 7.62061 128.459)" fill="#4398d1" stroke="#3e8cc7"/></g><rect width="1.27219" height="38.8812" rx="0" ry="0" transform="matrix(1.625 0 0 1.02307 14.7928 128.459)" fill="#3e8cc7" stroke-width="0"/><rect width="1.27219" height="38.8812" rx="0" ry="0" transform="matrix(1.625 0 0 1.02153 23.4596 128.459)" fill="#3e8cc7" stroke-width="0"/><rect width="1.27219" height="38.8812" rx="0" ry="0" transform="matrix(0 1.625-.646347 0 32.7513 137.266)" fill="#3e8cc7" stroke-width="0"/><rect width="1.27219" height="38.8812" rx="0" ry="0" transform="matrix(0 1.625-.646347 0 32.7514 147.314)" fill="#3e8cc7" stroke-width="0"/><rect width="1.27219" height="38.8812" rx="0" ry="0" transform="matrix(0 1.625-.646347 0 32.7514 157.571)" fill="#3e8cc7" stroke-width="0"/></g><g transform="matrix(0 1-1 0 273.792578 44.003846)"><g transform="translate(0 0.000001)"><rect width="25.325" height="49.637" rx="0" ry="0" transform="matrix(.992329 0 0 0.801381 7.62061 128.459)" fill="#4398d1" stroke="#3e8cc7"/></g><rect width="1.27219" height="38.8812" rx="0" ry="0" transform="matrix(1.625 0 0 1.02307 14.7928 128.459)" fill="#3e8cc7" stroke-width="0"/><rect width="1.27219" height="38.8812" rx="0" ry="0" transform="matrix(1.625 0 0 1.02153 23.4596 128.459)" fill="#3e8cc7" stroke-width="0"/><rect width="1.27219" height="38.8812" rx="0" ry="0" transform="matrix(0 1.625-.646347 0 32.7513 137.266)" fill="#3e8cc7" stroke-width="0"/><rect width="1.27219" height="38.8812" rx="0" ry="0" transform="matrix(0 1.625-.646347 0 32.7514 147.314)" fill="#3e8cc7" stroke-width="0"/><rect width="1.27219" height="38.8812" rx="0" ry="0" transform="matrix(0 1.625-.646347 0 32.7514 157.571)" fill="#3e8cc7" stroke-width="0"/></g><g transform="matrix(0 1-1 0 419.931248 44.004141)"><g transform="translate(0 0.000001)"><rect width="25.325" height="49.637" rx="0" ry="0" transform="matrix(.992329 0 0 0.801381 7.62061 128.459)" fill="#4398d1" stroke="#3e8cc7"/></g><rect width="1.27219" height="38.8812" rx="0" ry="0" transform="matrix(1.625 0 0 1.02307 14.7928 128.459)" fill="#3e8cc7" stroke-width="0"/><rect width="1.27219" height="38.8812" rx="0" ry="0" transform="matrix(1.625 0 0 1.02153 23.4596 128.459)" fill="#3e8cc7" stroke-width="0"/><rect width="1.27219" height="38.8812" rx="0" ry="0" transform="matrix(0 1.625-.646347 0 32.7513 137.266)" fill="#3e8cc7" stroke-width="0"/><rect width="1.27219" height="38.8812" rx="0" ry="0" transform="matrix(0 1.625-.646347 0 32.7514 147.314)" fill="#3e8cc7" stroke-width="0"/><rect width="1.27219" height="38.8812" rx="0" ry="0" transform="matrix(0 1.625-.646347 0 32.7514 157.571)" fill="#3e8cc7" stroke-width="0"/></g></g></svg>
