<svg id="efB5SoPqFD71" xmlns="http://www.w3.org/2000/svg" xmlns:xlink="http://www.w3.org/1999/xlink" viewBox="0 0 300 50" shape-rendering="geometricPrecision" text-rendering="geometricPrecision"><g transform="translate(.000011-36.793091)"><rect width="300" height="17.221" rx="0" ry="0" transform="matrix(1 0 0 0.127014-.000011 51.6245)" fill="#818181" stroke-width="0"/><rect width="300" height="17.221" rx="0" ry="0" transform="matrix(1 0 0 0.127014-.000011 69.8027)" fill="#818181" stroke-width="0"/><g transform="translate(-1.46284-86.615)"><g transform="translate(0 0.000001)"><rect width="25.325" height="49.637" rx="0" ry="0" transform="matrix(.992329 0 0 0.801381 7.62061 128.459)" fill="#4398d1" stroke="#3e8cc7"/></g><rect width="1.27219" height="38.8812" rx="0" ry="0" transform="matrix(1.625 0 0 1.02307 14.7928 128.459)" fill="#3e8cc7" stroke-width="0"/><rect width="1.27219" height="38.8812" rx="0" ry="0" transform="matrix(1.625 0 0 1.02153 23.4596 128.459)" fill="#3e8cc7" stroke-width="0"/><rect width="1.27219" height="38.8812" rx="0" ry="0" transform="matrix(0 1.625-.646347 0 32.7513 137.266)" fill="#3e8cc7" stroke-width="0"/><rect width="1.27219" height="38.8812" rx="0" ry="0" transform="matrix(0 1.625-.646347 0 32.7514 147.314)" fill="#3e8cc7" stroke-width="0"/><rect width="1.27219" height="38.8812" rx="0" ry="0" transform="matrix(0 1.625-.646347 0 32.7514 157.571)" fill="#3e8cc7" stroke-width="0"/></g><g transform="translate(163.546-86.555)"><g transform="translate(0 0.000001)"><rect width="25.325" height="49.637" rx="0" ry="0" transform="matrix(.992329 0 0 0.801381 7.62061 128.459)" fill="#4398d1" stroke="#3e8cc7"/></g><rect width="1.27219" height="38.8812" rx="0" ry="0" transform="matrix(1.625 0 0 1.02307 14.7928 128.459)" fill="#3e8cc7" stroke-width="0"/><rect width="1.27219" height="38.8812" rx="0" ry="0" transform="matrix(1.625 0 0 1.02153 23.4596 128.459)" fill="#3e8cc7" stroke-width="0"/><rect width="1.27219" height="38.8812" rx="0" ry="0" transform="matrix(0 1.625-.646347 0 32.7513 137.266)" fill="#3e8cc7" stroke-width="0"/><rect width="1.27219" height="38.8812" rx="0" ry="0" transform="matrix(0 1.625-.646347 0 32.7514 147.314)" fill="#3e8cc7" stroke-width="0"/><rect width="1.27219" height="38.8812" rx="0" ry="0" transform="matrix(0 1.625-.646347 0 32.7514 157.571)" fill="#3e8cc7" stroke-width="0"/></g><g transform="translate(31.2986-86.555)"><g transform="translate(0 0.000001)"><rect width="25.325" height="49.637" rx="0" ry="0" transform="matrix(.992329 0 0 0.801381 7.62061 128.459)" fill="#4398d1" stroke="#3e8cc7"/></g><rect width="1.27219" height="38.8812" rx="0" ry="0" transform="matrix(1.625 0 0 1.02307 14.7928 128.459)" fill="#3e8cc7" stroke-width="0"/><rect width="1.27219" height="38.8812" rx="0" ry="0" transform="matrix(1.625 0 0 1.02153 23.4596 128.459)" fill="#3e8cc7" stroke-width="0"/><rect width="1.27219" height="38.8812" rx="0" ry="0" transform="matrix(0 1.625-.646347 0 32.7513 137.266)" fill="#3e8cc7" stroke-width="0"/><rect width="1.27219" height="38.8812" rx="0" ry="0" transform="matrix(0 1.625-.646347 0 32.7514 147.314)" fill="#3e8cc7" stroke-width="0"/><rect width="1.27219" height="38.8812" rx="0" ry="0" transform="matrix(0 1.625-.646347 0 32.7514 157.571)" fill="#3e8cc7" stroke-width="0"/></g><g transform="translate(196.043-86.495)"><g transform="translate(0 0.000001)"><rect width="25.325" height="49.637" rx="0" ry="0" transform="matrix(.992329 0 0 0.801381 7.62061 128.459)" fill="#4398d1" stroke="#3e8cc7"/></g><rect width="1.27219" height="38.8812" rx="0" ry="0" transform="matrix(1.625 0 0 1.02307 14.7928 128.459)" fill="#3e8cc7" stroke-width="0"/><rect width="1.27219" height="38.8812" rx="0" ry="0" transform="matrix(1.625 0 0 1.02153 23.4596 128.459)" fill="#3e8cc7" stroke-width="0"/><rect width="1.27219" height="38.8812" rx="0" ry="0" transform="matrix(0 1.625-.646347 0 32.7513 137.266)" fill="#3e8cc7" stroke-width="0"/><rect width="1.27219" height="38.8812" rx="0" ry="0" transform="matrix(0 1.625-.646347 0 32.7514 147.314)" fill="#3e8cc7" stroke-width="0"/><rect width="1.27219" height="38.8812" rx="0" ry="0" transform="matrix(0 1.625-.646347 0 32.7514 157.571)" fill="#3e8cc7" stroke-width="0"/></g><g transform="translate(63.3559-86.555)"><g transform="translate(0 0.000001)"><rect width="25.325" height="49.637" rx="0" ry="0" transform="matrix(.992329 0 0 0.801381 7.62061 128.459)" fill="#4398d1" stroke="#3e8cc7"/></g><rect width="1.27219" height="38.8812" rx="0" ry="0" transform="matrix(1.625 0 0 1.02307 14.7928 128.459)" fill="#3e8cc7" stroke-width="0"/><rect width="1.27219" height="38.8812" rx="0" ry="0" transform="matrix(1.625 0 0 1.02153 23.4596 128.459)" fill="#3e8cc7" stroke-width="0"/><rect width="1.27219" height="38.8812" rx="0" ry="0" transform="matrix(0 1.625-.646347 0 32.7513 137.266)" fill="#3e8cc7" stroke-width="0"/><rect width="1.27219" height="38.8812" rx="0" ry="0" transform="matrix(0 1.625-.646347 0 32.7514 147.314)" fill="#3e8cc7" stroke-width="0"/><rect width="1.27219" height="38.8812" rx="0" ry="0" transform="matrix(0 1.625-.646347 0 32.7514 157.571)" fill="#3e8cc7" stroke-width="0"/></g><g transform="translate(228.1-86.495)"><g transform="translate(0 0.000001)"><rect width="25.325" height="49.637" rx="0" ry="0" transform="matrix(.992329 0 0 0.801381 7.62061 128.459)" fill="#4398d1" stroke="#3e8cc7"/></g><rect width="1.27219" height="38.8812" rx="0" ry="0" transform="matrix(1.625 0 0 1.02307 14.7928 128.459)" fill="#3e8cc7" stroke-width="0"/><rect width="1.27219" height="38.8812" rx="0" ry="0" transform="matrix(1.625 0 0 1.02153 23.4596 128.459)" fill="#3e8cc7" stroke-width="0"/><rect width="1.27219" height="38.8812" rx="0" ry="0" transform="matrix(0 1.625-.646347 0 32.7513 137.266)" fill="#3e8cc7" stroke-width="0"/><rect width="1.27219" height="38.8812" rx="0" ry="0" transform="matrix(0 1.625-.646347 0 32.7514 147.314)" fill="#3e8cc7" stroke-width="0"/><rect width="1.27219" height="38.8812" rx="0" ry="0" transform="matrix(0 1.625-.646347 0 32.7514 157.571)" fill="#3e8cc7" stroke-width="0"/></g><g transform="translate(96.1099-86.555)"><g transform="translate(0 0.000001)"><rect width="25.325" height="49.637" rx="0" ry="0" transform="matrix(.992329 0 0 0.801381 7.62061 128.459)" fill="#4398d1" stroke="#3e8cc7"/></g><rect width="1.27219" height="38.8812" rx="0" ry="0" transform="matrix(1.625 0 0 1.02307 14.7928 128.459)" fill="#3e8cc7" stroke-width="0"/><rect width="1.27219" height="38.8812" rx="0" ry="0" transform="matrix(1.625 0 0 1.02153 23.4596 128.459)" fill="#3e8cc7" stroke-width="0"/><rect width="1.27219" height="38.8812" rx="0" ry="0" transform="matrix(0 1.625-.646347 0 32.7513 137.266)" fill="#3e8cc7" stroke-width="0"/><rect width="1.27219" height="38.8812" rx="0" ry="0" transform="matrix(0 1.625-.646347 0 32.7514 147.314)" fill="#3e8cc7" stroke-width="0"/><rect width="1.27219" height="38.8812" rx="0" ry="0" transform="matrix(0 1.625-.646347 0 32.7514 157.571)" fill="#3e8cc7" stroke-width="0"/></g><g transform="translate(260.854-86.495)"><g transform="translate(0 0.000001)"><rect width="25.325" height="49.637" rx="0" ry="0" transform="matrix(.992329 0 0 0.801381 7.62061 128.459)" fill="#4398d1" stroke="#3e8cc7"/></g><rect width="1.27219" height="38.8812" rx="0" ry="0" transform="matrix(1.625 0 0 1.02307 14.7928 128.459)" fill="#3e8cc7" stroke-width="0"/><rect width="1.27219" height="38.8812" rx="0" ry="0" transform="matrix(1.625 0 0 1.02153 23.4596 128.459)" fill="#3e8cc7" stroke-width="0"/><rect width="1.27219" height="38.8812" rx="0" ry="0" transform="matrix(0 1.625-.646347 0 32.7513 137.266)" fill="#3e8cc7" stroke-width="0"/><rect width="1.27219" height="38.8812" rx="0" ry="0" transform="matrix(0 1.625-.646347 0 32.7514 147.314)" fill="#3e8cc7" stroke-width="0"/><rect width="1.27219" height="38.8812" rx="0" ry="0" transform="matrix(0 1.625-.646347 0 32.7514 157.571)" fill="#3e8cc7" stroke-width="0"/></g><g transform="translate(129.814-86.555)"><g transform="translate(0 0.000001)"><rect width="25.325" height="49.637" rx="0" ry="0" transform="matrix(.992329 0 0 0.801381 7.62061 128.459)" fill="#4398d1" stroke="#3e8cc7"/></g><rect width="1.27219" height="38.8812" rx="0" ry="0" transform="matrix(1.625 0 0 1.02307 14.7928 128.459)" fill="#3e8cc7" stroke-width="0"/><rect width="1.27219" height="38.8812" rx="0" ry="0" transform="matrix(1.625 0 0 1.02153 23.4596 128.459)" fill="#3e8cc7" stroke-width="0"/><rect width="1.27219" height="38.8812" rx="0" ry="0" transform="matrix(0 1.625-.646347 0 32.7513 137.266)" fill="#3e8cc7" stroke-width="0"/><rect width="1.27219" height="38.8812" rx="0" ry="0" transform="matrix(0 1.625-.646347 0 32.7514 147.314)" fill="#3e8cc7" stroke-width="0"/><rect width="1.27219" height="38.8812" rx="0" ry="0" transform="matrix(0 1.625-.646347 0 32.7514 157.571)" fill="#3e8cc7" stroke-width="0"/></g></g></svg>
